<?xml version="1.0" encoding="UTF-8"?>
<svg id="Camada_1" data-name="Camada 1" xmlns="http://www.w3.org/2000/svg" viewBox="0 0 880.62 883.8">
  <defs>
    <style>
      .cls-1 {
        fill: #fff;
      }
    </style>
  </defs>
  <path class="cls-1" d="M244.2,542.2c-29.28-9.38-48.34.18-68.43,1.89-20.09,1.7-28.26-4.09-28.26-4.09,13.62,53.79,37.79,87.83,67.06,99.74,29.28,11.91,49.36,6.13,73.19-2.38,23.83-8.51,38.81-4.77,38.81-4.77-16-47.66-53.11-81.02-82.38-90.4Z"/>
  <path class="cls-1" d="M433.78,526.49c-48.46,32.07-36.39,87.04-36.39,87.04,0,0,29.83-68.04,213-104.48,0,0-93.33-37.67-176.61,17.44Z"/>
  <path class="cls-1" d="M879.85,314.46c-64.77-23.67-131.82-26.31-158.14-26.32-6.56-6.59-14.07-12.24-22.31-16.71,21.16-40.06,58.16-98.33,58.27-139.62-13.36-8.74-28.07,5.13-39.05,12.12,7.86-1.35,16.1-2.61,23.99-1.95-8.11,44.53-29.34,85.88-48.05,126.99-8.27-3.9-17.18-6.66-26.54-8.07-3.38-22.37-17.93-136.05,31.75-156.39,55.16-22.6,105.05-2.54,113.45,10.27,8.4,12.81,14.39,31.1-11.13,76.04-18.49,32.55-47.24,61.73-61.69,75.36l-8.77,7.98c.73-.63,3.96-3.44,8.77-7.98,66.42-23.51,127.5-13.36,127.5-13.36,17.24,26.67,11.95,61.64,11.95,61.64Z"/>
  <path class="cls-1" d="M729.24,835.97s-.02.01-.02.01"/>
  <path class="cls-1" d="M745.71,431.23c-.17-.08-.18-.31-.02-.4.99-.56,3.85-2.26,7.64-5.28,12.96-10.29,36.91-35.87,34.9-83.39-.01-.21-.27-.31-.41-.15-2.07,2.41-12.91,13.73-38.23,18.98-.15.03-.29-.08-.28-.23.11-1.86.17-3.74.17-5.63,0-9.3-1.33-18.29-3.79-26.79-13.61,4.96-27.07,18.28-35.2,36.63-.55,1.25-1.07,2.5-1.56,3.76l-41.33-8.63c-.19-3.07-.56-6.21-1.12-9.36-5.41-30.79-26.32-52.86-46.68-49.27-20.37,3.58-32.48,31.44-27.07,62.23,5.42,30.79,26.31,52.85,46.68,49.27,9.82-1.74,17.73-9.11,22.68-19.75l41.47,5.51c.5,12.86,4.96,23.79,12.92,29.98-16.73,14.51-38.52,23.32-62.38,23.46-53.11.3-96.42-42.52-96.72-95.63-.3-53.12,42.52-96.42,95.64-96.72,2.77-.02,5.51.09,8.22.3-4.79-23.8-14.88-85.45-.46-125.67.02-.06.01-.12-.01-.18-18.1-36.64-38.27-67.08-39.72-69.27-.06-.08-.06-.17,0-.25,11.18-16.38,18.26-47.9,5.02-56.56-12.42-8.12-32.89,18.62-35.48,22.1-.11.15-.34.11-.39-.07-1.23-4.16-11.34-36.34-29.49-29.18-18.74,7.4-4.63,48.13-3.64,50.92.04.09.01.19-.07.25-39.74,30.72-83.43,90.55-95.93,108.22,26.75,50.67,87.69,93.72,116.63,112.27-.93.87-1.86,1.76-2.77,2.67-12.87,12.86-21.87,30.42-23.63,47.57-90.78-46.19-142.35-116.7-145.5-121.08-39.23,3-76.59,12.63-110.99,27.78h-.01c-44.24,19.47-84.51,48.83-116.8,85.07-.6.67-1.66-.07-1.23-.86,7.92-14.38,35.47-55.64,106.63-92.83.15-.07.18-.28.04-.38-20.48-15.79-58.26-38.84-121.13-50.63-.09-.02-.17-.09-.18-.19-.38-2.8-5.94-41.97-22.19-41.97s-16.11,30.78-16.09,34.81c.01.18-.19.29-.35.19-3.42-2.31-30.57-20.02-38.45-6.4-8.38,14.46,20.06,37.25,28.69,41.54.1.05.14.15.12.25-1.41,5.56-36.11,144.94-5.74,236.14.01.05.01.09,0,.14-6.89,20.69-11.85,42.29-14.66,64.53-.01.07-.06.14-.13.17-30.46,15.1-63.91,19.31-67.67,19.74-.17.02-.25.21-.17.35,21.06,35.75,55.41,47.41,71.05,38.75-170.79,94.6-64.86,249.95-55.73,259.92.17.18.45.02.39-.21-13.67-52.38,12.05-78.04,16.26-81.82.17-.15.42.02.36.24-35.26,125.14,92.2,145.84,105.09,147.61.24.03.35-.29.14-.42-23.44-15.36-28.34-90.72,16.69-111.04,10.68-4.82,24.17-6.55,40.89-3.64,8.66,1.5,16.95,2.22,24.84,2.27.06,0,.11.02.15.06l15.31,13.99c.11.1.28.07.35-.06l9.09-15.96c.03-.06.09-.1.16-.11,54.03-9.46,84.48-48.29,87.03-51.66.09-.12.26-.12.35,0,3.11,3.86,46.08,54.71,142.01,43.04.05-.01.1,0,.15.04l31.5,21.2c.11.07.26.04.33-.07l20.77-32.59s.08-.08.14-.09c93.3-25.81,134.58-30.61,163.62-16.81,9.15,4.34,17.09,10.54,25.05,18.5,31.64,31.64-6.03,80.45-11.59,87.29-.16.19.06.45.28.34,12.87-6.19,151.43-76.41,86.08-200.09-.11-.22.14-.45.33-.3,5.46,4.18,36.91,29.39,47.42,62.87.02.06.06.12.12.15,7.49,3.03,62.11-182.81-118.41-269.48ZM311.01,301.2c82.34-20.18,141.89,46.57,129.49,115.45-5.65,31.38-25.84,55.61-49.8,69.06,6.5-7.15,10.75-16.04,11.32-25.96,1.74-30.34-30.65-55.52-70.54-49.23-37.58,5.93-55.58,36.25-44.52,62.34,3.66,8.64,10.06,15.79,17.85,21.1-23.88-7.79-46.64-24.8-59.99-49.67-27.96-52.1-6.8-125.21,66.19-143.09ZM199.54,703.27l-11.28-14.28,11.2-14.34,11.28,14.28-11.2,14.34ZM116.28,493.87s55.15-20.42,125.11,8.68c69.95,29.11,95.49,131.75,95.49,131.75-238.73,117.45-220.6-140.43-220.6-140.43ZM269.25,702.12l-14.33-15.26,11.43-17.55,14.33,15.27-11.43,17.54ZM380.34,655.43c-1.54,13.26-9.68,24.53-27.54,33.05-.95.45-2.05.55-3.07.28-17.64-4.74-26.68-12.76-28.66-25.09-.32-1.98.72-3.95,2.53-4.82,15.54-7.44,33.38-9.95,53.53-7.51,2.01.25,3.44,2.07,3.21,4.09ZM476.61,676.68l-34.3-23.13,14.34-38.81,34.31,23.13-14.35,38.81ZM587.32,636.75l-42.39-19.92,9.3-45.9,42.39,19.91-9.3,45.91ZM658.23,467.83c-6.64,32.17-31.66,56.68-56.68,66.38-25.03,9.71-125.4,43.05-145.71,54.13-37.6,20.51-54.28,38.89-58.37,38.89s-24.39-25.24-14.99-59.91c9.91-36.54,49.27-95.87,196.02-139.47,19.21,19.09,31.68,24.86,43.69,28.49,9.51,2.88,34.43,6.38,36.54,6.26-.32,3.03.15,2.07-.5,5.23Z"/>
</svg>