<?xml version="1.0" encoding="UTF-8"?>
<svg id="Camada_1" data-name="Camada 1" xmlns="http://www.w3.org/2000/svg" viewBox="0 0 877.79 883.8">
  <defs>
    <style>
      .cls-1 {
        fill: #fff;
      }

      .cls-2 {
        fill: #9e14fa;
      }

      .cls-3 {
        fill: #ffba60;
      }
    </style>
  </defs>
  <path class="cls-2" d="M866.44,554.38c-17.47-53.25-53.36-95.3-106.82-125.22,14.99-14.6,33.22-41.58,31.17-85.42-.25-5.33-3.72-10.13-8.86-11.59-1.19-.34-2.38-.5-3.56-.5-3.88,0-7.53,1.79-9.85,5.11-.73.83-5.31,5.75-15.89,10.04-.2-1.96-.47-3.9-.77-5.84-.3-19.32-8.44-36.74-21.38-49.21,31.93,1.52,82.65,6.99,132.02,25.03,0,0,5.14-33.98-11.61-59.9,0,0-59.35-9.86-123.9,12.98,14.04-13.25,41.98-41.6,59.95-73.23,24.8-43.67,18.98-61.44,10.82-73.89-8.16-12.45-56.64-31.94-110.25-9.98-10.1,4.14-17.46,12.25-22.77,22.68-13.25-26.6-27.34-49.49-34.26-60.32,6.9-13.37,11.77-31.94,8.92-46.41-2.07-10.48-7.54-15.97-11.76-18.73-3.51-2.3-7.62-3.51-11.88-3.51-9.4,0-18.6,6.07-25.9,12.78-5.71-9.75-14.59-19.25-27.5-19.25-3.22,0-6.45.63-9.6,1.88-7.76,3.06-20.24,12.43-16.57,40.75.77,5.95,2.09,11.63,3.3,16.04-44.68,37.52-90.64,104.57-92.67,107.54-.2.29-.36.59-.53.89-9.41,3.84-23.02,11.96-32.8,28.58-38.95,2.1-76.75,10.67-112.69,25.57-.46-.5-.97-.97-1.53-1.4-18.69-14.46-58.33-39.93-118.39-52.76-3.24-16.3-11.7-42.87-32.45-42.87-6.32,0-12.05,2.44-16.57,7.07-5.08,5.19-7.93,12.68-9.52,19.81-5.57-2.28-11.77-4.05-17.64-4.05-8.96,0-16.19,3.96-20.36,11.15-2.4,4.13-4.67,10.98-1.87,20.1,3.9,12.74,16.76,25.06,26.53,32.24-7.3,32.08-29.41,143.62-4.53,224-5.67,17.74-9.9,36.04-12.62,54.55-27.32,12.09-55.82,15.26-56.12,15.29-4.19.44-7.88,2.98-9.78,6.75-1.9,3.76-1.77,8.23.36,11.88,11.9,20.35,27.82,33.62,43.07,40.65-28.66,21.46-48.64,46.63-59.58,75.14-11.36,29.6-12.86,62.17-4.45,96.83,5.85,24.11,15.4,44.24,22.39,56.89,15.13,27.39,19.92,27.53,24.55,27.67.12,0,.25,0,.37,0,3.33,0,6.51-1.34,8.83-3.69,1.76,3.42,3.72,6.75,5.89,9.98,32.76,48.86,100.15,56.9,103,57.22.46.05.93.08,1.38.08,5.31,0,10.1-3.4,11.79-8.54,1.84-5.58-.49-11.69-5.59-14.63-5.54-3.2-12.65-18.91-11.59-40.07.53-10.65,4.12-36.49,25.83-46.29,5.61-2.53,12.16-3.82,19.47-3.82,4.08,0,8.47.4,13.03,1.2,7.2,1.25,14.38,2.02,21.42,2.28l11.7,10.69c2.31,2.11,5.3,3.25,8.38,3.25.64,0,1.29-.05,1.93-.15,3.73-.59,6.99-2.84,8.86-6.12l6.2-10.89c38.18-8.27,64.35-29.99,77.38-43.31,16.17,14.33,51.73,37.92,110.59,37.92,7.8,0,15.85-.43,24-1.26l27.09,18.23c2.07,1.39,4.48,2.12,6.93,2.12.84,0,1.69-.09,2.53-.26,3.28-.68,6.14-2.66,7.94-5.48l17.79-27.9c56.17-15.39,90.4-21.99,113.96-21.99,12.93,0,23.07,1.95,31.9,6.15,6.93,3.29,13.57,8.23,20.88,15.54,3.63,3.63,14.69,14.69,3.98,41.17-6.12,15.14-16.15,27.11-16.58,27.61-3.75,4.44-3.92,10.89-.41,15.52,2.41,3.18,6.11,4.91,9.9,4.91,1.74,0,3.49-.37,5.16-1.12,3.23-1.48,79.45-36.96,102.35-104.83,5.52-16.37,7.48-33.15,5.89-50.24,2.29,4.3,4.27,8.83,5.73,13.52.86,2.74,2.63,5.09,5.03,6.67,2.11,1.39,4.56,2.13,7.09,2.13h.03c9.69,0,15.17-8.23,20.2-30.32,4.14-18.18,11.83-66.37-6.12-121.08ZM726.66,270.17s-.06.05-.09.08c.03-.03.06-.05.09-.08ZM726.1,270.7c-.16.15-.31.29-.43.4.14-.13.28-.27.43-.4ZM725.47,271.29c-.29.27-.45.43-.51.49.08-.08.27-.26.51-.49Z"/>
  <path d="M605.59,509.56c-178,35.42-206.98,101.53-206.98,101.53,0,0-11.74-53.41,35.35-84.57,80.95-53.56,171.63-16.95,171.63-16.95Z"/>
  <path d="M329.79,629.62s-14.56-3.64-37.71,4.63c-23.15,8.26-42.67,13.89-71.12,2.32-28.46-11.59-51.94-44.67-65.17-96.93,0,0,7.94,5.63,27.46,3.97,19.53-1.65,38.05-10.94,66.49-1.84,28.44,9.12,64.51,41.54,80.05,87.84Z"/>
  <path class="cls-1" d="M861.32,250.14c-1.9-2.94-4.95-4.94-8.4-5.51-.56-.09-13.99-2.29-34.88-2.29-13.73,0-31.79.97-51.95,4.53,11.11-12.97,22.55-28.1,31.64-44.1,27.54-48.5,20.71-71.11,10.4-86.84-8.12-12.38-35.7-25.53-70.82-25.53-18.57,0-36.91,3.66-54.51,10.87-14.04,5.75-24.68,17.27-31.87,34.43-17.23-33.64-35.06-60.24-35.06-60.24,10.92-15.88,17.86-46.64,4.96-55.08s-34.73,21.83-34.73,21.83c0,0-9.92-36.22-28.78-28.78-18.86,7.44-3.48,49.62-3.48,49.62-39.47,30.46-83,90.57-94.08,106.31,28.88,55.97,104.5,104.94,125.85,117.97-13.59,11.95-23.68,27.78-28.53,45.77-96.69-46.06-150.45-122.26-150.45-122.26.26-.79.55-1.55.83-2.31-38.36,2.86-74.91,12.23-108.53,27.04h0c-44.72,19.69-85.27,49.76-117.26,86.96,0,0,22.34-50.51,110.01-92.84-19.86-15.36-60.19-40.6-121.65-52.1,0,0-5.21-40.94-21.58-40.94s-15.63,34.24-15.63,34.24c0,0-29.53-20.59-37.71-6.45-8.19,14.14,19.84,36.47,28.03,40.44,0,0-35.75,139.26-5.6,229.7-6.71,20.16-11.54,41.21-14.28,62.89-31.44,15.61-66.21,19.27-66.21,19.27,20.45,34.97,53.98,46.4,69.22,37.96-171.49,94.99-55.88,253.01-53.59,253.07-14.89-55.83,16.17-80.68,16.17-80.68-36.8,128.69,102.93,144.28,102.93,144.28-23.53-13.59-28.97-88.44,15.34-108.44,10.38-4.68,23.49-6.36,39.74-3.54,8.44,1.47,16.53,2.17,24.23,2.21l15.14,13.84,9.02-15.84c54.96-9.58,84.84-50.44,84.84-50.44,0,0,41.32,53.86,138.25,42.04l30.87,20.78,20.36-31.93c90.72-25.1,130.86-29.76,159.09-16.35,8.89,4.22,16.61,10.24,24.34,17.98,32.74,32.74-10.89,84.4-11.89,85.58,1.91-.87,151.39-70.01,84.09-195.75,0,0,35.73,26.05,46.9,61.78,6.91,4.55,61.28-177.5-115.37-262,0,0,3.19-1.67,7.79-5.33,12.65-10.04,36.06-35.07,33.88-81.63,0,0-9.96,13.26-37.81,18.95.12-1.9.18-3.82.18-5.75,0-9.16-1.32-18.02-3.78-26.37-2.89-9.86-7.37-19.03-13.13-27.24,30.3,1.06,83.19,5.83,134.39,24.54,1.38.51,2.83.75,4.26.75,2.2,0,4.39-.59,6.33-1.74,3.21-1.9,5.39-5.14,5.95-8.83.24-1.58,5.62-38.97-13.46-68.5ZM314.67,307.58c80.01-19.61,137.88,45.26,125.83,112.2-5.49,30.49-25.12,54.04-48.4,67.11,6.31-6.95,10.45-15.59,11-25.23,1.69-29.48-29.79-53.95-68.55-47.84-36.52,5.76-54.01,35.23-43.26,60.58,3.56,8.39,9.77,15.34,17.35,20.5-23.21-7.57-45.32-24.09-58.29-48.26-27.17-50.63-6.61-121.67,64.32-139.06ZM206.35,698.31l-10.96-13.88,10.89-13.94,10.96,13.88-10.89,13.94ZM125.45,494.82s53.58-19.85,121.58,8.45c67.97,28.27,92.78,128.01,92.78,128.01-231.99,114.14-214.36-136.46-214.36-136.46ZM274.09,697.18l-13.93-14.83,11.11-17.05,13.93,14.83-11.11,17.05ZM382.04,651.81c-1.49,12.88-9.41,23.84-26.76,32.11-.93.44-2,.54-2.99.27-17.14-4.6-25.92-12.39-27.85-24.37-.31-1.93.7-3.84,2.47-4.68,15.1-7.24,32.44-9.67,52.01-7.3,1.96.24,3.35,2.01,3.12,3.97ZM475.59,672.46l-33.34-22.48,13.94-37.71,33.34,22.48-13.94,37.71ZM583.18,633.67l-41.2-19.35,9.04-44.61,41.2,19.35-9.04,44.61ZM652.08,469.5c-6.45,31.26-30.77,55.09-55.07,64.53-24.32,9.41-121.85,41.83-141.59,52.59-36.55,19.92-52.75,37.8-56.73,37.8s-23.71-24.53-14.57-58.23c9.87-36.39,49.79-96.03,201.3-138.65,16.48,14.57,38.14,23.44,61.87,23.44,2.24,0,4.46-.1,6.67-.26,0,5.89-.52,12.21-1.88,18.79ZM862.5,316.78c-59.67-21.8-121.3-25.24-149.34-25.55-7.3-7.26-15.79-13.33-25.16-17.87,20.69-38.87,55.66-94.49,55.77-134.07-12.98-8.49-27.28,4.99-37.95,11.78,7.64-1.31,15.65-2.54,23.31-1.89-7.79,42.76-28.03,82.51-46.05,122-8.29-3.44-17.17-5.72-26.46-6.64-3.34-22.19-17.25-132.06,30.88-151.77,53.6-21.96,102.08-2.47,110.25,9.98,8.16,12.45,13.98,30.22-10.82,73.89-17.97,31.63-45.91,59.99-59.95,73.23,64.54-22.85,123.9-12.98,123.9-12.98,16.75,25.92,11.61,59.9,11.61,59.9Z"/>
  <path class="cls-3" d="M588.15,364.67c5.09,29.95,25.28,51.49,45.09,48.13,9.55-1.63,17.28-8.76,22.15-19.07l40.27,5.58c.41,12.51,4.68,23.15,12.39,29.21-16.34,14-37.56,22.45-60.74,22.45-51.62,0-93.46-41.84-93.46-93.45s41.84-93.46,93.46-93.46c42.46,0,78.29,28.31,89.67,67.09-13.25,4.75-26.4,17.62-34.4,35.4-.54,1.21-1.06,2.43-1.54,3.64l-40.11-8.61c-.17-2.98-.51-6.03-1.04-9.11-5.09-29.95-25.28-51.5-45.09-48.13-19.81,3.37-31.74,30.38-26.65,60.33Z"/>
</svg>