<?xml version="1.0" encoding="UTF-8"?>
<svg id="Camada_1" data-name="Camada 1" xmlns="http://www.w3.org/2000/svg" xmlns:xlink="http://www.w3.org/1999/xlink" viewBox="0 0 947.52 972.23">
  <defs>
    <style>
      .cls-1 {
        fill: #fff;
      }

      .cls-2 {
        fill: #9e14fa;
      }

      .cls-3 {
        fill: #ffba60;
      }

      .cls-4 {
        fill: url(#Gradiente_sem_nome_33);
      }
    </style>
    <linearGradient id="Gradiente_sem_nome_33" data-name="Gradiente sem nome 33" x1="522.92" y1="972.97" x2="398.32" y2="6.84" gradientUnits="userSpaceOnUse">
      <stop offset="0" stop-color="#8f55b5"/>
      <stop offset=".17" stop-color="#9244c6"/>
      <stop offset=".5" stop-color="#9829e2"/>
      <stop offset=".79" stop-color="#9c19f3"/>
      <stop offset="1" stop-color="#9e14fa"/>
    </linearGradient>
  </defs>
  <path class="cls-1" d="M212.7,972.23c-2.2,0-4.36-.16-6.42-.47-16.32-2.26-31.13-8.27-44.03-17.87-2.34-1.75-4.96-3.02-8.24-4-7.24-2.14-13.98-6.15-19.4-11.58-1.15-1.16-2.31-2.35-3.5-3.65-.59-.51-1.27-1.12-1.99-1.84-1.15-1.15-2.3-2.35-3.5-3.64-.58-.5-1.27-1.12-1.99-1.84-1.14-1.14-2.29-2.34-3.49-3.64-.59-.51-1.26-1.12-1.99-1.84-1.15-1.15-2.3-2.35-3.49-3.64-.59-.51-1.26-1.11-1.98-1.83-11.39-11.39-20.22-24.38-26.26-38.63-4.84-11.41-8.68-23.36-11.41-35.52-.65-2.88-1.04-5.95-1.13-9.05,0-.06,0-.13,0-.19-.37-19.26,5.39-37.29,17.14-53.59,1.11-1.56,2.32-3.05,3.61-4.44,3.27-6.81,8.19-12.8,14.27-17.28,2.48-3.78,5.52-7.19,8.98-10.06,7.7-6.44,15.99-13.18,24.64-20.04,6.38-5.05,13.01-10.05,19.74-14.91,1.08-1.22,2.23-2.38,3.42-3.46,10.22-9.37,19.92-19.73,28.8-30.8l-11.44,1.04-56.97,8.99c-2.44.37-4.83.56-7.2.56-3.56,0-7.12-.42-10.56-1.24-16.77-3.93-33.03-10.71-48.33-20.15-3.6-2.24-6.82-4.91-9.67-7.99-.57-.62-1.05-1.18-1.46-1.67-1.48-1.25-2.81-2.5-4.02-3.81-.57-.62-1.05-1.17-1.46-1.67-1.48-1.24-2.81-2.5-4.01-3.81-.57-.62-1.05-1.18-1.46-1.67-1.48-1.25-2.81-2.51-4.02-3.81-.57-.62-1.05-1.17-1.46-1.67-1.49-1.25-2.81-2.51-4.02-3.81-16.43-17.85-25.92-39.82-28.24-65.34,0-.05,0-.1-.01-.15-.22-2.66-.22-5.37,0-8.03,0-.04,0-.08.01-.13,2.06-22.9,10.04-43.98,23.73-62.66.89-1.23,1.83-2.42,2.89-3.61.05-.06.1-.11.15-.16,9.33-10.3,20.01-18.63,31.89-24.89-.12-.12-.24-.24-.36-.36-1.99-1.95-3.81-4.13-5.41-6.49-11.39-16.44-17.48-35.09-18.1-55.43-.37-11.62-.56-23.48-.56-35.22,0-1.42.06-2.75.19-4.03,2.88-34.64,7.26-69.53,13.03-103.69,5.74-34.16,13.09-68.19,21.86-101.13,2.19-8.08,6.35-15.22,12.17-20.95,1.5-2.54,3.26-4.98,5.28-7.26.03-.04,17.91-20.01,17.91-20.01.08-.09.34-.37.34-.37.48-.52.93-1,1.42-1.48,7.98-7.98,17.12-14.14,27.17-18.29,10.01-4.18,20.82-6.3,32.09-6.3,4.7,0,9.56.39,14.44,1.15,4.64.71,9.18,2.14,13.39,4.22,2.66-16.4,8.06-31.91,16.1-46.2,4.54-8.07,11.31-14.52,19.58-18.65,2.81-1.42,5.75-2.64,8.79-3.67,2.64-2.36,5.55-4.39,8.69-6.08,6.29-3.41,12.99-6.02,19.94-7.74,6.92-1.71,14.22-2.58,21.72-2.58,4.36,0,8.89.31,13.49.91,1.32.16,2.46.37,3.5.58.09.02.19.04.29.06,18.12,3.89,33.95,12.97,47.04,26.98,1.81,1.66,3.62,3.48,5.52,5.52,1.79,1.65,3.6,3.45,5.48,5.48.21.19.42.39.63.59,9.08-2.63,18.64-3.95,28.58-3.95,4.25,0,8.5.58,12.6,1.74.04.01.07.02.1.03,12.45,3.57,23.72,10.33,33.52,20.09.84.84,1.54,1.63,2.11,2.32,1.22,1.09,2.32,2.11,3.36,3.16.84.84,1.54,1.64,2.11,2.32,1.22,1.09,2.32,2.11,3.36,3.16.84.84,1.54,1.63,2.11,2.32,1.22,1.09,2.31,2.11,3.36,3.15.84.84,1.55,1.64,2.12,2.33.7.62,1.35,1.22,1.98,1.82,12.04-8.83,26.24-13.46,41.4-13.46,2.27,0,4.58.11,6.86.32.05,0,.11.01.16.02.26.02.56.05.9.09,4.8.53,9.71,1.04,14.7,1.53-.31-3.03-.3-6.1.01-9.14,1.92-19.18,11.32-35.87,27.2-48.26.27-.22.54-.43.76-.59,14.22-10.66,30.36-17.25,48.01-19.58,8.51-1.14,17.29-1.72,26.08-1.72,4.15,0,8.55.13,13.07.4.12,0,.24.02.36.02,2.32.18,4.59.5,6.73.96.05.01.11.02.16.03,14.31,3.2,27.11,10.73,37.12,21.82,1.98,1.78,3.86,3.65,5.59,5.58,1.95,1.75,3.78,3.59,5.48,5.48,2,1.8,3.89,3.7,5.64,5.67,3.57,3.23,6.8,6.76,9.6,10.49.04.05.07.09.11.14.62.84,1.21,1.69,1.74,2.51.87,1.35,1.7,2.71,2.5,4.1,15.91-3.4,32.71-5.12,50.08-5.12,24.79,0,46.69,9.62,63.39,27.84,1.91,1.75,3.74,3.59,5.47,5.47,1.91,1.75,3.74,3.59,5.48,5.48,1.91,1.75,3.75,3.59,5.48,5.48,4.62,4.25,8.89,9.07,12.7,14.34,3.13,4.33,5.48,9.14,6.96,14.29,4.15,14.59,8.09,28.94,11.73,42.71,4.38,16.57,7.38,33.87,8.92,51.43.85,9.87-1.5,19.7-6.57,28.03,1.13,1.09,2.19,2.23,3.19,3.41,4.14,3.51,7.58,7.65,10.26,12.34.03.05.05.09.08.14,8.27,14.75,14.09,30.81,17.29,47.74,2.99,15.81,3.74,32.28,2.22,48.99-.78,17.5-8.61,33.07-22.1,43.91l-.14.11c-.51.4-1.05.8-1.59,1.2,0,0-.26.19-.35.26-9.62,6.84-20.52,11.66-32.39,14.31-.08.02-.15.03-.23.05-.55.12-1.1.22-1.65.32,4.13,15.2,5.89,31.15,5.27,47.64-.37,8.83-3.18,17.26-8.14,24.46l-8.86,12.75c-4.72,6.83-11.24,12.28-18.84,15.74-.63.28-1.25.56-1.88.85,2.49,2.14,4.88,4.48,7.29,7.13,1.92,1.75,3.79,3.62,5.58,5.57,1.89,1.73,3.73,3.56,5.48,5.48,1.89,1.73,3.73,3.57,5.49,5.49,13.13,11.99,22.03,27.47,26.43,46.01.02.09.04.18.06.28.27,1.22.49,2.37.66,3.51,3.54,23.19,3.34,46.37-.61,68.8-.87,4.99-1.9,10.05-3.1,15.15,2.49,1.14,4.86,2.51,7.12,4.09,2.85,1.08,5.6,2.44,8.19,4.06,7.09,4.43,13.54,9.79,19.17,15.92,1.9,1.74,3.73,3.58,5.48,5.48,1.89,1.74,3.73,3.58,5.48,5.48,1.9,1.74,3.73,3.58,5.48,5.48,14.48,13.31,24.38,31.07,28.64,51.45,2.05,9.76.83,20.15-3.45,29.21l-7.13,15.02c-2.12,4.47-4.95,8.56-8.41,12.16-10.25,10.72-23.27,18.58-38.65,23.32-3.64,1.14-7.6,1.83-11.67,2.02-.06,0-.12,0-.18,0-1.56.06-3.12.11-4.67.15-.23,16.92-4.55,33.4-12.92,49.24-3.57,6.78-8.86,12.63-15.29,16.9-12.31,8.14-25.45,15.25-39.09,21.17-.17.07-.75.32-.89.38-12.31,5.03-24.81,7.58-37.16,7.58-13.8,0-27.29-3.15-40.09-9.35-2.23-1.09-4.32-2.32-6.28-3.68-5.26-3.69-10.08-7.93-14.38-12.65-.74-.67-1.46-1.36-2.17-2.06-17.22,13.11-36.79,23.43-58.39,30.76-2.06.71-4.24,1.28-6.49,1.71-.03,0-.07.01-.1.02-7,1.27-14.04,1.92-20.94,1.92-11.91,0-23.85-1.86-35.48-5.53-2.05-.65-4.04-1.44-5.95-2.35-10.38-4.92-19.49-11.57-27.05-19.76-1.8-1.63-3.62-3.44-5.5-5.49-1.79-1.63-3.6-3.43-5.48-5.48-1.79-1.62-3.59-3.42-5.46-5.46-9.93-8.93-17.38-19.8-22.17-32.34-2.26-5.91-3.27-12.14-2.99-18.49l.22-5.05c-2.4,3.04-4.98,5.99-7.74,8.86-.08.09-.17.18-.26.26-.87.87-2.04,2.01-3.46,3.18-15.92,13.3-35.24,20.42-57.4,21.18-.1,0-.2,0-.3,0-.44.02-.85.03-1.28.03-3.59,0-7.17-.42-10.65-1.26-9.37-2.21-19.07-5.03-28.75-8.35-10.24-3.52-20.3-7.81-29.89-12.75-2.28-1.19-4.39-2.51-6.34-3.96-2.62-1.94-5.19-3.94-7.71-6-4.24,7.42-8.8,14.66-13.64,21.66-2.75,3.98-6.13,7.52-10.03,10.5l-.73.56c-6.4,9.84-13.32,19.58-20.62,29-.27.34-.5.63-.74.91-.1.12-.2.25-.3.37l-11.5,13.78c-2.53,3.04-5.44,5.75-8.64,8.03-8.94,6.35-18.44,12.22-28.26,17.47-12.48,6.69-25.93,11.25-39.94,13.55-.1.02-.21.03-.31.05-2.53.37-4.87.56-7.17.56Z"/>
  <path class="cls-4" d="M926.97,774.82c-3.51-16.77-11.47-30.84-23.23-41.39-1.72-1.92-3.55-3.75-5.48-5.48-1.72-1.92-3.55-3.75-5.48-5.48-1.72-1.92-3.55-3.75-5.48-5.48-4.51-5.03-9.73-9.44-15.64-13.14-1.75-1.1-3.63-1.99-5.59-2.64l-1.52-.5c-2.25-1.91-4.78-3.42-7.56-4.47-4.62-1.78-9.31-3.49-14.01-5.2,3.1-10.24,5.59-20.56,7.39-30.9,3.58-20.34,3.74-41.33.52-62.41-.1-.71-.24-1.39-.39-2.09-3.55-14.92-10.66-27.16-21.13-36.47-1.71-1.93-3.54-3.76-5.48-5.49-1.71-1.93-3.54-3.75-5.48-5.48-1.74-1.96-3.6-3.82-5.57-5.57-1.98-2.22-4.07-4.34-6.36-6.29-2.95-2.51-6.41-4.31-10.14-5.33-11.56-3.14-23.48-4.71-35.4-4.71-6.77,0-13.67.5-20.52,1.52-2.63.39-5.26.86-7.89,1.33l-11.04-30.53c.05.05.1.13.16.21,1.88,2.3,4.1,4.26,6.64,5.8l12.68,7.82c3.06,1.88,6.46,3.11,10.01,3.61,4,.57,8.03.86,11.92.86,9.15,0,18.01-1.6,26.33-4.71,8.24-3.08,16.34-6.43,24.08-9.93,4.31-1.96,8-5.05,10.69-8.94l8.81-12.68c2.82-4.1,4.42-8.92,4.63-13.88.78-20.73-2.72-40.37-10.38-58.38-1.12-2.61-2.3-5.2-3.53-7.79h20.47c1.91,0,3.82-.21,5.67-.6,9.25-2.07,17.73-5.8,25.15-11.08.39-.29.78-.58,1.15-.86,9.07-7.29,14.25-17.75,14.67-29.65,1.41-15.06.76-29.86-1.91-43.95-2.8-14.8-7.87-28.81-15.08-41.67-1.8-3.15-4.25-5.89-7.16-8.07-1.53-2.09-3.39-3.92-5.48-5.48-1.53-2.09-3.39-3.92-5.48-5.48-1.45-1.97-3.2-3.71-5.15-5.22l7.11-7.83c4.92-5.39,7.35-12.6,6.72-19.87-1.44-16.37-4.24-32.55-8.34-48.08-3.82-14.46-7.74-28.68-11.61-42.27-.84-2.9-2.17-5.65-3.95-8.1-3.25-4.49-6.81-8.46-10.66-11.91-1.75-1.96-3.58-3.78-5.48-5.48-1.75-1.96-3.58-3.78-5.48-5.48-1.75-1.96-3.58-3.78-5.48-5.48-12.92-14.41-29.79-21.99-49.23-21.99-18.33,0-35.9,2.07-52.24,6.14-2.95.74-5.92,1.56-8.88,2.37-2.12-5.76-4.84-11.31-8.24-16.59-.34-.52-.71-1.05-1.07-1.54-2.36-3.14-5-5.91-7.83-8.38-1.75-2.05-3.62-3.91-5.6-5.63-1.71-1.99-3.55-3.8-5.48-5.48-1.73-2.01-3.59-3.85-5.55-5.54-7.32-8.43-16.68-14.11-27.33-16.49-1.33-.29-2.69-.47-4.05-.58-4-.23-8-.37-11.9-.37-7.92,0-15.82.52-23.45,1.54-14.22,1.88-27.22,7.19-38.61,15.74-.1.08-.24.18-.37.29-11.53,8.97-18.35,20.94-19.71,34.61-.21,1.96-.18,3.92.08,5.86l2.9,23.37c-1.62-.16-3.27-.31-4.92-.44-11.95-.97-23.76-2.09-35.08-3.35-.16-.03-.34-.03-.52-.05-1.67-.16-3.35-.23-4.99-.23-12.34,0-23.76,4.29-33.07,12.39-4.15,3.61-7.68,7.62-10.62,11.93-2.37-4.24-4.97-8.37-7.87-12.32-.78-1.07-1.65-2.09-2.59-3.03-1.2-1.2-2.44-2.31-3.69-3.38-.57-.72-1.14-1.44-1.79-2.09-1.2-1.2-2.44-2.31-3.7-3.39-.57-.71-1.13-1.44-1.78-2.09-1.2-1.2-2.44-2.31-3.7-3.39-.57-.71-1.13-1.44-1.78-2.09-1.2-1.2-2.44-2.31-3.7-3.39-.57-.71-1.13-1.44-1.78-2.09-7.35-7.32-15.71-12.39-24.92-15.03-2.33-.65-4.76-.99-7.19-.99-12.16,0-23.42,2.41-33.63,7.11-1.33-1.38-2.7-2.69-4.09-3.94-1.8-1.98-3.65-3.87-5.59-5.6-1.77-1.93-3.58-3.78-5.48-5.48-1.78-1.94-3.6-3.79-5.5-5.5-10.32-11.25-22.79-18.57-37.16-21.65-.65-.13-1.33-.26-2.04-.34-3.74-.5-7.45-.76-11.03-.76-5.86,0-11.5.65-16.89,1.99-5.36,1.33-10.46,3.32-15.27,5.93-2.93,1.57-5.49,3.69-7.58,6.22-3.61.86-7.08,2.12-10.46,3.82-4.65,2.33-8.52,6.01-11.08,10.56-8.03,14.27-12.99,30.01-14.75,46.77-.1.89-.13,1.8-.13,2.72,0,9.72.43,19.23,1.24,28.52-1.02-1.06-2.12-2.04-3.31-2.92-1.54-2.09-3.39-3.92-5.48-5.48-1.68-2.28-3.72-4.29-6.05-5.93l-10.48-7.32c-3.27-2.3-7.03-3.82-11.01-4.42-3.84-.6-7.69-.91-11.4-.91-8.65,0-16.86,1.62-24.44,4.78-7.58,3.14-14.54,7.82-20.68,13.96-.34.34-.65.68-.99,1.05l-17.8,19.9c-1.54,1.75-2.88,3.69-3.9,5.75l-.42.81c-4.24,3.42-7.35,8.16-8.81,13.57-8.55,32.13-15.79,65.54-21.46,99.32-5.7,33.75-10.01,68.16-12.84,102.22-.08.73-.1,1.46-.1,2.17,0,11.48.18,23.11.55,34.61.5,16.39,5.39,31.45,14.59,44.71.89,1.31,1.88,2.51,3.01,3.61,1.19,1.19,2.4,2.32,3.63,3.4.58.72,1.19,1.42,1.85,2.08,1.17,1.15,2.36,2.26,3.56,3.31.6.75,1.23,1.48,1.92,2.17,1.17,1.15,2.36,2.26,3.56,3.31.6.75,1.23,1.48,1.92,2.17,1.16,1.15,2.34,2.24,3.54,3.29.58.73,1.18,1.43,1.84,2.08-5.07,1.81-10.11,3.63-15.07,5.48-14.35,5.33-26.98,13.96-37.52,25.59-.6.68-1.15,1.36-1.67,2.09-11.56,15.74-18.27,33.49-20,52.71-.13,1.57-.13,3.14,0,4.71,1.91,21.02,9.65,39.06,23.01,53.57,1.04,1.13,2.21,2.13,3.43,3.06.69.8,1.33,1.63,2.05,2.42,1.05,1.13,2.21,2.13,3.43,3.07.69.8,1.32,1.63,2.04,2.41,1.05,1.13,2.21,2.13,3.43,3.07.69.8,1.32,1.63,2.04,2.41,1.05,1.13,2.22,2.13,3.44,3.07.69.8,1.32,1.63,2.04,2.41,1.62,1.75,3.48,3.29,5.49,4.55,13.44,8.29,27.69,14.25,42.4,17.7,1.96.47,3.97.71,5.99.71,1.36,0,2.72-.1,4.08-.31l57.62-9.1,53.67-4.86c.4.02.8.05,1.21.08-7.1,11.65-15.13,23.14-23.9,34.27-9.93,12.58-20.86,24.34-32.42,34.93-1.15,1.05-2.2,2.2-3.14,3.42-7.24,5.18-14.3,10.48-21.05,15.82-8.1,6.43-16.29,13.07-24.26,19.74-2.85,2.35-5.15,5.31-6.74,8.63l-2.41,1.62c-4.68,3.19-8.21,7.84-10.04,13.23-1.59,1.33-3.01,2.88-4.21,4.58-9.18,12.71-13.7,26.69-13.41,41.57.05,1.78.26,3.53.65,5.26,2.48,11.08,5.96,21.86,10.3,32.08,5.05,11.89,12.44,22.74,21.99,32.29.55.55,1.14,1.03,1.73,1.53,1.21,1.34,2.46,2.66,3.75,3.95.54.54,1.14,1.03,1.73,1.52,1.21,1.34,2.46,2.66,3.75,3.95.54.54,1.14,1.03,1.73,1.52,1.21,1.34,2.46,2.66,3.75,3.95.54.54,1.14,1.03,1.73,1.52,1.21,1.34,2.46,2.66,3.75,3.95,3.06,3.06,6.85,5.33,11.01,6.56,5.49,1.65,10.22,3.97,14.43,7.11,10.22,7.61,21.96,12.34,34.95,14.12,1.18.18,2.38.26,3.56.26,1.41,0,2.82-.13,4.24-.34,11.79-1.93,23.16-5.78,33.75-11.45,9.1-4.86,17.86-10.27,26.07-16.1,1.83-1.31,3.48-2.85,4.92-4.58l11.5-13.78c.18-.24.39-.47.58-.71,7.71-9.96,14.93-20.21,21.52-30.54l3.53-2.69c2.2-1.67,4.13-3.69,5.7-5.96,9.34-13.52,17.51-27.9,24.33-42.8.52.51,1.06,1.01,1.59,1.51,7.13,7.43,15.07,14.46,23.83,20.95,1.12.84,2.3,1.57,3.56,2.22,8.63,4.44,17.78,8.37,27.22,11.61,8.99,3.08,18.07,5.73,26.93,7.82,1.96.47,3.97.71,5.99.71.31,0,.6-.03.89-.03,17.62-.6,32.86-6.17,45.31-16.58.73-.6,1.41-1.25,2.09-1.93,12.5-12.97,20.42-28,23.61-44.65.21-1.1.34-2.17.39-3.27,1.28-20.68-4.21-39.11-15.95-53.96l.38-.28c1.07,1.07,2.13,2.14,3.24,3.17,4.63,4.91,9.65,9.43,15.04,13.48,1.54,1.15,3.19,2.12,4.92,2.9,17.15,7.74,35.14,11.92,53.41,12.39,1.83.05,3.69.08,5.52.08,1.21,0,2.42-.03,3.63-.05-8.5,8.13-17.34,15.98-26.46,23.5-2.72,2.25-4.92,4.99-6.54,8.05-6.77,7.11-12.31,15.56-16.5,25.2-1.28,2.93-1.99,6.07-2.14,9.25l-.65,15.14c-.16,3.56.42,7.14,1.7,10.48,3.76,9.85,9.71,18.37,17.56,25.22,1.72,1.91,3.52,3.77,5.48,5.48,1.72,1.91,3.52,3.77,5.48,5.48,1.72,1.91,3.52,3.77,5.48,5.48,5.85,6.51,13.07,11.91,21.56,15.94,1.1.52,2.22.97,3.37,1.33,9.7,3.06,19.61,4.6,29.46,4.6,5.78,0,11.61-.55,17.36-1.6,1.25-.23,2.48-.55,3.69-.97,25.48-8.64,47.65-21.78,66.03-38.96,1.33,1.42,2.76,2.76,4.23,4.07,1.7,1.92,3.53,3.75,5.48,5.48,1.7,1.92,3.53,3.75,5.48,5.48,3.41,3.84,7.27,7.33,11.65,10.4,1.12.78,2.33,1.49,3.56,2.09,10.04,4.86,20.6,7.35,31.37,7.35,9.8,0,19.74-2.07,29.59-6.09.16-.08.31-.13.5-.21,12.6-5.46,24.71-12.03,35.97-19.48,3.66-2.43,6.64-5.73,8.68-9.59,10.04-18.98,12.97-39.06,8.68-59.71,2.2.03,4.42.05,6.64.05,6.35,0,12.84-.13,19.22-.37,2.27-.1,4.52-.47,6.69-1.15,12.05-3.71,22.2-9.78,30.12-18.07,1.93-2.01,3.56-4.34,4.76-6.88l7.11-14.98c2.43-5.15,3.14-10.98,1.96-16.58Z"/>
  <g>
    <path class="cls-1" d="M111.99,451.26c-7.69-1.39-14.67-5.24-20.96-11.53-6.29-9.08-9.61-19.29-9.95-30.65-.35-11.34-.52-22.61-.52-33.79,2.79-33.53,6.98-66.88,12.57-100.06,5.58-33.18,12.57-65.48,20.96-96.92l3.14-1.05,4.19-8.38,17.81-19.91c9.08-9.08,20.43-12.57,34.05-10.48l10.48,7.33c5.58,9.78,9.08,20.26,10.48,31.43,1.39,11.18,2.44,22.71,3.14,34.58v68.1c-2.8,27.95-6.29,55.62-10.48,83.03-4.19,27.42-14.15,52.65-29.86,75.7-12.57,9.78-27.59,13.97-45.05,12.57ZM373.11,408.3c-22.71-2.1-44.19-7.6-64.44-16.5-20.26-8.91-39.12-20.34-56.58-34.32-6.29-11.17-11.88-22.35-16.76-33.53-4.9-11.17-7.69-23.39-8.38-36.67-.7-15.36,3.84-28.63,13.62-39.81,10.48-4.89,22-6.63,34.58-5.24,3.49,6.99,8.38,13.28,14.67,18.86,20.96,16.07,43.04,29.86,66.27,41.39,23.22,11.53,45.66,24.28,67.32,38.24,8.38,8.38,11.17,18.86,8.38,31.43-2.1,6.99-6.29,12.92-12.57,17.81-11.88,13.62-27.24,19.74-46.1,18.34ZM301.34,223.89c-13.28-2.79-25.15-8.38-35.62-16.76-11.88-13.27-19.38-28.11-22.53-44.53-3.14-16.41-4.71-33.87-4.71-52.39,1.39-13.27,5.24-25.49,11.53-36.67,4.19-2.1,8.73-2.79,13.62-2.1l5.24-8.38c7.68-4.19,16.76-5.58,27.24-4.19,9.77,2.1,18.16,7.34,25.15,15.72,4.19,8.38,7.68,17.29,10.48,26.72,2.79,9.43,4.54,19.38,5.24,29.86v44.53c-2.1,15.37-9.09,29-20.96,40.86-4.19,4.19-9.09,6.64-14.67,7.33ZM377.3,227.03l-18.86-8.38c-6.64-7.68-11.18-16.06-13.62-25.15-2.45-9.08-3.32-18.86-2.62-29.34,2.1-10.48,4.19-21.22,6.29-32.22,2.1-11,7.15-20.69,15.19-29.08,8.38-5.58,18.16-8.38,29.34-8.38,4.89,1.4,9.43,4.19,13.62,8.38,7.68,10.48,12.92,22.18,15.72,35.1v41.91c.7,13.97-3.85,25.5-13.62,34.58-8.38,8.38-18.86,12.57-31.43,12.57Z"/>
    <path class="cls-1" d="M732.79,468.28l-12.69-7.81c-11.07-13.67-19.53-28.64-25.39-44.92-5.86-16.27-11.72-32.71-17.58-49.31l-2.93-.98c-11.72,7.16-24.41,12.53-38.08,16.11-13.67,3.58-28,5.37-42.96,5.37s-29.13-4.88-40.52-14.65c-8.47-10.41-14.16-22.13-17.09-35.15-2.93-13.02-4.39-26.68-4.39-41.01l5.86-15.62c10.41-5.2,22.29-7.48,35.64-6.83,9.76,1.3,19.69,2.44,29.78,3.42,10.08.98,20.34,1.47,30.76,1.47v-2.93c-5.21-6.51-10.09-13.34-14.65-20.5-4.56-7.16-9.12-14.32-13.67-21.48h-3.9c-10.42,3.26-21.41,5.86-32.96,7.81-11.56,1.95-23.19,3.26-34.91,3.91-7.16-1.95-14-4.88-20.51-8.79l-15.62-12.69c-9.12-9.77-15.46-20.66-19.04-32.71-3.58-12.04-5.05-24.9-4.39-38.57.65-9.11,4.55-16.76,11.72-22.95,5.2-4.55,11.39-6.51,18.55-5.86,11.72,1.3,23.68,2.44,35.88,3.42,12.21.98,23.84,2.77,34.91,5.37l.98-10.74-5.86-46.87c.65-6.51,3.9-12.04,9.76-16.6,7.81-5.86,16.6-9.44,26.36-10.74,9.76-1.3,19.85-1.63,30.27-.98,5.86,1.3,10.74,4.56,14.65,9.77,5.86,9.11,8.95,19.21,9.28,30.27.32,11.07,3.09,21.16,8.3,30.27h6.84c14.32-5.2,28.64-9.6,42.96-13.18,14.32-3.58,29.61-5.37,45.89-5.37,13.67,0,24.73,5.86,33.2,17.58,3.91,13.67,7.73,27.58,11.47,41.74,3.74,14.16,6.26,28.73,7.57,43.69l-9.76,10.74c-12.69,5.21-26.85,6.83-42.48,4.88l-19.53-.98c-13.02,2.61-26.69,4.23-41.01,4.88v1.95c7.81,9.77,16.6,18.55,26.36,26.36l10.74,1.95c14.97-2.6,30.59-3.91,46.87-3.91,15.29,2.61,29.12,8.14,41.5,16.6,5.86,10.42,9.93,21.65,12.21,33.69,2.27,12.04,2.76,24.58,1.47,37.59,0,4.56-1.63,8.14-4.88,10.74-4.56,3.26-9.76,5.54-15.62,6.83h-64.93v2.93c9.76,13.02,17.74,26.78,23.92,41.26,6.18,14.49,8.95,30.19,8.3,47.11l-8.79,12.69c-7.16,3.25-14.65,6.35-22.46,9.28-7.81,2.93-16.28,3.74-25.39,2.44Z"/>
    <path class="cls-1" d="M190.8,904.16c-8.61-1.18-16.24-4.25-22.89-9.2-6.66-4.96-14.19-8.69-22.58-11.19-7.19-7.19-12.65-15.19-16.39-24-3.74-8.81-6.7-18.02-8.88-27.63-.18-9.13,2.64-17.72,8.45-25.77l5.48-4.42,2.3-7.07,8.31-5.65,2.87-6.14c7.9-6.6,15.81-13.03,23.74-19.31,7.93-6.27,16.19-12.41,24.8-18.43l.8-2.03c12.67-11.6,24.43-24.27,35.28-38,10.84-13.73,20.52-27.84,29.01-42.34,3.19-15.32,6.73-30.34,10.62-45.08l-3.09-1.68-2.47-5.66c-9.2-.47-18.24-1.12-27.14-1.95-8.9-.82-17.95-1.48-27.14-1.95l-56.4,5.11-58.48,9.22c-12.02-2.83-23.57-7.67-34.65-14.51-9.43-10.25-14.83-23-16.21-38.24,1.3-14.49,6.32-27.69,15.04-39.6,7.72-8.54,16.8-14.76,27.23-18.64,10.43-3.89,20.88-7.61,31.34-11.17l42.79-3.88c43.02,5.91,86.38,10.15,130.08,12.72,43.7,2.58,87.04,4.86,130.04,6.85,3.82,6.2,4.72,16.08,2.69,29.66-7.37,26.82-17.37,52.72-29.97,77.72-12.61,25-26.69,48.99-42.26,71.97,15.55,5.78,31.37,11.7,47.44,17.76,16.07,6.07,31.45,14.31,46.12,24.74,11.43,10.73,16.61,24.65,15.55,41.73-2.22,11.64-7.8,22.11-16.76,31.42-7.9,6.6-17.71,10.11-29.44,10.51-8.01-1.88-16.16-4.25-24.42-7.1-8.27-2.84-16.17-6.21-23.71-10.11-9.81-7.28-18.37-15.17-25.67-23.66-10.66-9.49-18.83-20.19-24.48-32.1l-1.94.18c-1.95,14.56-6.06,28.74-12.32,42.54-6.27,13.81-13.73,26.98-22.4,39.53l-7.34,5.57c-6.84,11.08-14.36,21.89-22.55,32.44l-11.5,13.79c-7.37,5.24-15.11,10.02-23.21,14.36-8.11,4.33-16.67,7.22-25.68,8.7Z"/>
    <path class="cls-1" d="M764.82,875.67c-13.89,5.69-27.09,5.5-39.62-.59-6.35-4.44-10.94-10.14-13.79-17.07-.21-9.89-.24-19.82-.12-29.81.12-9.98.08-19.92-.12-29.81l-1.95.6c-12.48,19.48-26.68,36.82-42.6,52.03-15.93,15.21-35.15,26.63-57.66,34.28-11.44,2.1-22.86,1.35-34.27-2.24-9.99-4.74-16.81-11.88-20.45-21.41l.67-15.13c3.74-8.61,8.84-15.69,15.31-21.24l.37-2.25c19.27-15.88,37.11-32.93,53.53-51.14,16.42-18.2,31.54-38.31,45.37-60.34l.37-2.25,16.62-22.17-.9-2.92-4.87,1.5c-13.08,8.29-26.47,16.15-40.17,23.57-13.7,7.42-28.77,13.31-45.2,17.65-15.33,3.31-30.43,4.76-45.29,4.36-14.87-.39-29.32-3.76-43.35-10.1-7.39-5.53-13.85-12.08-19.37-19.62-5.52-7.54-9.68-15.85-12.48-24.94-2.91-14.03-1.51-27.96,4.18-41.79,7.98-10.99,19.68-17.43,35.08-19.34,11.63-1.45,23.04-2.48,34.23-3.08,11.18-.6,22.37-1.2,33.55-1.81l-.9-2.92c-11.09-12.92-21.44-26.35-31.06-40.27-9.61-13.91-16.58-30.15-20.87-48.73-2.5-12.73-1.68-25.06,2.46-37l6.74-12.73c5.09-6.54,11.39-12.04,18.91-16.48,7.51-4.44,16.01-7.41,25.5-8.92,6.69-1.34,13.1-.12,19.25,3.66l1.87,2.62,45.77,13.62,21.95,12.43,21.66,59.95c1.7,10.14,3.3,19.95,4.8,29.43,15.38-5.45,30.8-9.3,46.26-11.59,15.46-2.27,30.56-1.42,45.3,2.57,6.74,5.74,11.29,13.58,13.64,23.51,2.8,18.33,2.66,36.31-.43,53.96-3.09,17.66-8.22,35.04-15.38,52.17l-9.43,17.83c11.83-.8,23.58.73,35.26,4.6,11.67,3.87,23.15,7.97,34.44,12.31l1.87,2.62,8.31,2.77c11.43,7.14,18.65,17.89,21.66,32.24l-7.11,14.98c-4.84,5.05-11.16,8.77-18.95,11.17-10.53.41-21.09.46-31.66.16-10.57-.29-20.91-.66-30.99-1.11l2.1,6.81c4.55,7.84,7.89,16.4,10.04,25.69,3.1,14.68,1.05,28.81-6.13,42.39-10.04,6.64-20.69,12.41-31.98,17.31Z"/>
  </g>
  <g>
    <path class="cls-2" d="M804.43,539.52c-14.07-42.87-42.96-76.73-86-100.82,12.07-11.76,26.75-33.48,25.1-68.77-.2-4.29-3-8.16-7.13-9.33-.96-.27-1.92-.4-2.87-.4-3.12,0-6.06,1.44-7.93,4.12-.58.67-4.28,4.63-12.79,8.08-.16-1.58-.38-3.14-.62-4.7-.24-15.56-6.79-29.58-17.21-39.62,25.7,1.23,66.54,5.63,106.29,20.15,0,0,4.14-27.36-9.35-48.22,0,0-47.79-7.94-99.75,10.45,11.31-10.66,33.8-33.49,48.26-58.96,19.97-35.16,15.28-49.47,8.71-59.49-6.57-10.02-45.6-25.72-88.76-8.03-8.13,3.33-14.06,9.86-18.33,18.26-10.67-21.41-22.01-39.84-27.58-48.56,5.56-10.76,9.48-25.71,7.18-37.37-1.66-8.43-6.07-12.86-9.47-15.08-2.83-1.85-6.13-2.83-9.56-2.83-7.56,0-14.97,4.88-20.85,10.29-4.6-7.85-11.75-15.5-22.14-15.5-2.59,0-5.19.51-7.73,1.51-6.25,2.47-16.29,10.01-13.34,32.81.62,4.79,1.68,9.36,2.66,12.92-35.97,30.2-72.97,84.19-74.61,86.58-.16.23-.29.48-.43.72-7.57,3.09-18.54,9.63-26.41,23.01-31.36,1.69-61.79,8.59-90.72,20.59-.37-.41-.78-.78-1.23-1.13-15.05-11.64-46.96-32.15-95.31-42.48-2.6-13.13-9.42-34.51-26.12-34.51-5.09,0-9.7,1.97-13.34,5.69-4.09,4.18-6.38,10.2-7.66,15.95-4.48-1.84-9.48-3.26-14.21-3.26-7.22,0-13.04,3.19-16.39,8.98-1.93,3.33-3.76,8.84-1.51,16.19,3.14,10.26,13.5,20.18,21.36,25.96-5.88,25.83-23.67,115.63-3.65,180.34-4.56,14.28-7.97,29.02-10.16,43.92-22,9.73-44.94,12.29-45.18,12.31-3.38.36-6.34,2.4-7.88,5.43-1.53,3.03-1.42,6.63.29,9.56,9.58,16.38,22.4,27.07,34.68,32.73-23.07,17.28-39.16,37.54-47.97,60.49-9.15,23.83-10.35,50.06-3.58,77.95,4.71,19.41,12.4,35.62,18.02,45.8,12.18,22.05,16.04,22.17,19.77,22.28.1,0,.2,0,.3,0,2.68,0,5.24-1.08,7.11-2.97,1.41,2.75,3,5.44,4.74,8.04,26.37,39.34,80.63,45.81,82.92,46.07.37.04.75.06,1.11.06,4.27,0,8.13-2.74,9.49-6.88,1.48-4.5-.4-9.41-4.5-11.78-4.46-2.58-10.19-15.22-9.33-32.26.43-8.58,3.32-29.38,20.8-37.27,4.52-2.04,9.79-3.07,15.67-3.07,3.29,0,6.82.32,10.49.96,5.8,1.01,11.58,1.62,17.24,1.84l9.42,8.61c1.86,1.7,4.27,2.62,6.75,2.62.52,0,1.04-.04,1.56-.12,3-.47,5.63-2.29,7.13-4.93l4.99-8.77c30.74-6.66,51.81-24.14,62.3-34.87,13.02,11.54,41.65,30.53,89.04,30.53,6.28,0,12.76-.34,19.32-1.02l21.81,14.67c1.66,1.12,3.61,1.7,5.58,1.7.68,0,1.36-.07,2.04-.21,2.64-.55,4.94-2.14,6.39-4.41l14.32-22.46c45.22-12.39,72.78-17.7,91.75-17.7,10.41,0,18.57,1.57,25.68,4.95,5.58,2.65,10.93,6.62,16.81,12.51,2.92,2.93,11.83,11.83,3.2,33.15-4.93,12.19-13.01,21.83-13.35,22.23-3.02,3.58-3.16,8.77-.33,12.5,1.94,2.56,4.92,3.96,7.97,3.96,1.4,0,2.81-.29,4.15-.9,2.6-1.19,63.96-29.76,82.4-84.4,4.45-13.18,6.02-26.69,4.74-40.45,1.85,3.47,3.43,7.11,4.61,10.88.69,2.2,2.12,4.1,4.05,5.37,1.7,1.12,3.67,1.71,5.71,1.71h.02c7.8,0,12.21-6.62,16.27-24.41,3.33-14.64,9.52-53.43-4.93-97.48ZM691.9,310.7s-.05.04-.07.07c.03-.02.05-.04.07-.07ZM691.45,311.13c-.13.12-.25.23-.34.33.11-.11.23-.22.34-.33ZM690.94,311.61c-.23.22-.36.34-.41.39.06-.06.22-.21.41-.39Z"/>
    <path d="M594.43,503.44c-143.31,28.52-166.64,81.74-166.64,81.74,0,0-9.45-43,28.46-68.09,65.17-43.12,138.18-13.65,138.18-13.65Z"/>
    <path d="M372.39,600.1s-11.72-2.93-30.36,3.73c-18.64,6.65-34.35,11.18-57.26,1.87-22.91-9.33-41.82-35.96-52.47-78.04,0,0,6.39,4.53,22.11,3.2,15.72-1.33,30.63-8.81,53.53-1.48,22.9,7.34,51.94,33.44,64.45,70.72Z"/>
    <path class="cls-1" d="M800.31,294.57c-1.53-2.36-3.98-3.97-6.76-4.44-.45-.08-11.27-1.84-28.08-1.84-11.06,0-25.59.78-41.83,3.64,8.94-10.44,18.16-22.62,25.48-35.51,22.17-39.04,16.68-57.25,8.38-69.91-6.54-9.96-28.74-20.56-57.02-20.56-14.95,0-29.72,2.94-43.89,8.75-11.3,4.63-19.87,13.91-25.66,27.72-13.87-27.08-28.22-48.5-28.22-48.5,8.79-12.78,14.38-37.55,3.99-44.34s-27.96,17.58-27.96,17.58c0,0-7.99-29.16-23.17-23.17-15.18,5.99-2.8,39.95-2.8,39.95-31.78,24.52-66.82,72.92-75.74,85.59,23.25,45.07,84.13,84.48,101.32,94.98-10.94,9.62-19.06,22.37-22.97,36.85-77.84-37.09-121.12-98.43-121.12-98.43.21-.64.44-1.24.67-1.86-30.89,2.31-60.31,9.85-87.38,21.77h0c-36,15.85-68.65,40.06-94.41,70.01,0,0,17.99-40.67,88.57-74.75-15.99-12.37-48.46-32.69-97.94-41.94,0,0-4.19-32.96-17.38-32.96s-12.58,27.57-12.58,27.57c0,0-23.78-16.58-30.36-5.19-6.6,11.38,15.98,29.36,22.57,32.56,0,0-28.78,112.12-4.51,184.93-5.41,16.23-9.29,33.18-11.5,50.63-25.31,12.56-53.3,15.51-53.3,15.51,16.46,28.16,43.46,37.36,55.73,30.56-138.06,76.47-44.99,203.69-43.15,203.75-11.99-44.95,13.02-64.96,13.02-64.96-29.63,103.61,82.87,116.16,82.87,116.16-18.94-10.95-23.32-71.2,12.35-87.3,8.36-3.77,18.91-5.12,31.99-2.85,6.8,1.18,13.31,1.74,19.5,1.78l12.19,11.14,7.26-12.75c44.25-7.71,68.31-40.61,68.31-40.61,0,0,33.27,43.37,111.31,33.84l24.86,16.73,16.39-25.71c73.04-20.21,105.35-23.96,128.08-13.17,7.16,3.4,13.37,8.25,19.6,14.47,26.36,26.36-8.77,67.95-9.58,68.9,1.54-.7,121.88-56.37,67.7-157.6,0,0,28.77,20.97,37.76,49.74,5.56,3.66,49.34-142.9-92.88-210.94,0,0,2.57-1.35,6.27-4.3,10.19-8.08,29.03-28.24,27.28-65.72,0,0-8.01,10.67-30.44,15.26.09-1.53.14-3.08.14-4.63,0-7.38-1.06-14.5-3.04-21.23-2.33-7.93-5.93-15.32-10.57-21.93,24.39.86,66.97,4.69,108.2,19.76,1.11.41,2.27.61,3.43.61,1.77,0,3.54-.47,5.1-1.4,2.58-1.53,4.34-4.14,4.79-7.11.19-1.27,4.53-31.38-10.84-55.15ZM360.21,340.82c64.41-15.79,111.01,36.44,101.31,90.33-4.42,24.55-20.22,43.51-38.96,54.03,5.08-5.6,8.41-12.55,8.86-20.31,1.36-23.74-23.98-43.44-55.19-38.52-29.4,4.64-43.48,28.36-34.83,48.77,2.86,6.76,7.87,12.35,13.97,16.5-18.69-6.09-36.49-19.4-46.93-38.85-21.88-40.76-5.32-97.96,51.78-111.95ZM273,655.4l-8.82-11.17,8.77-11.22,8.82,11.17-8.77,11.22ZM207.87,491.57s43.14-15.98,97.88,6.8c54.72,22.76,74.7,103.06,74.7,103.06-186.77,91.89-172.58-109.86-172.58-109.86ZM327.54,654.49l-11.21-11.94,8.94-13.72,11.21,11.94-8.94,13.72ZM414.45,617.96c-1.2,10.37-7.57,19.19-21.54,25.85-.75.36-1.61.43-2.41.22-13.8-3.71-20.87-9.98-22.42-19.62-.25-1.56.56-3.09,1.98-3.77,12.16-5.83,26.11-7.78,41.88-5.88,1.58.19,2.69,1.62,2.51,3.2ZM489.77,634.59l-26.84-18.1,11.22-30.36,26.84,18.1-11.22,30.36ZM576.38,603.35l-33.17-15.58,7.27-35.91,33.17,15.58-7.27,35.91ZM631.86,471.19c-5.19,25.17-24.77,44.35-44.34,51.95-19.58,7.58-98.1,33.68-113.99,42.34-29.43,16.04-42.47,30.43-45.67,30.43s-19.09-19.75-11.73-46.88c7.95-29.3,40.09-77.32,162.07-111.63,13.27,11.73,30.7,18.87,49.81,18.87,1.81,0,3.59-.08,5.37-.21,0,4.74-.42,9.83-1.52,15.13ZM801.26,348.23c-48.04-17.55-97.66-20.32-120.23-20.57-5.88-5.84-12.71-10.73-20.25-14.39,16.65-31.29,44.81-76.07,44.9-107.94-10.45-6.84-21.96,4.01-30.55,9.48,6.15-1.06,12.6-2.04,18.77-1.53-6.27,34.43-22.57,66.43-37.08,98.22-6.67-2.77-13.83-4.6-21.3-5.34-2.69-17.86-13.89-106.32,24.86-122.19,43.15-17.68,82.19-1.99,88.76,8.03,6.57,10.02,11.26,24.33-8.71,59.49-14.47,25.47-36.96,48.29-48.26,58.96,51.96-18.39,99.75-10.45,99.75-10.45,13.49,20.87,9.35,48.22,9.35,48.22Z"/>
    <path class="cls-3" d="M580.38,386.78c4.1,24.11,20.35,41.46,36.3,38.75,7.69-1.31,13.91-7.05,17.83-15.35l32.42,4.49c.33,10.07,3.77,18.64,9.97,23.52-13.15,11.27-30.24,18.07-48.9,18.07-41.56,0-75.25-33.69-75.25-75.24s33.69-75.25,75.25-75.25c34.18,0,63.03,22.79,72.2,54.01-10.66,3.83-21.26,14.18-27.7,28.5-.44.98-.85,1.96-1.24,2.93l-32.3-6.93c-.14-2.4-.41-4.86-.84-7.33-4.1-24.11-20.36-41.46-36.3-38.75-15.95,2.71-25.55,24.46-21.45,48.57Z"/>
  </g>
</svg>