<svg width="41" height="40" viewBox="0 0 41 40" fill="none" xmlns="http://www.w3.org/2000/svg">
<mask id="mask0_218_387" style="mask-type:luminance" maskUnits="userSpaceOnUse" x="0" y="0" width="41" height="40">
<path d="M20.4027 40C31.4484 40 40.4027 31.0457 40.4027 20C40.4027 8.9543 31.4484 0 20.4027 0C9.35701 0 0.40271 8.9543 0.40271 20C0.40271 31.0457 9.35701 40 20.4027 40Z" fill="white"/>
</mask>
<g mask="url(#mask0_218_387)">
<path d="M0.40271 0V40H11.6527L20.4027 35L29.1527 40H40.4027V0H29.1527L20.4027 5L11.6527 0H0.40271Z" fill="#D80027"/>
<path d="M11.6527 0H29.1527V40H11.6527V0Z" fill="#EEEEEE"/>
<path d="M23.9183 22.5781L27.3558 20.8594L25.6371 20V18.2812L22.1215 20L23.9183 16.5625H22.1215L20.4027 13.9062L18.684 16.4844H16.8871L18.684 20L15.1683 18.2812V20L13.4496 20.8594L16.9652 22.5781L16.0277 24.375H19.5433V26.9531H21.2621V24.375H24.7777L23.9183 22.5781Z" fill="#D80027"/>
</g>
</svg>
