<svg width="40" height="40" viewBox="0 0 40 40" fill="none" xmlns="http://www.w3.org/2000/svg">
<mask id="mask0_218_408" style="mask-type:luminance" maskUnits="userSpaceOnUse" x="0" y="0" width="40" height="40">
<path d="M20 40C31.0457 40 40 31.0457 40 20C40 8.9543 31.0457 0 20 0C8.95427 0 -3.05176e-05 8.9543 -3.05176e-05 20C-3.05176e-05 31.0457 8.95427 40 20 40Z" fill="white"/>
</mask>
<g mask="url(#mask0_218_408)">
<path d="M11.25 0H28.6718L31.25 20L28.6718 40H11.25L8.74997 20L11.25 0Z" fill="#EEEEEE"/>
<path d="M-3.05176e-05 0H11.25V40H-3.05176e-05V0Z" fill="#496E2D"/>
<path d="M28.75 0H40V40H28.75V0Z" fill="#D80027"/>
<path d="M20 21.6406V22.4219H20.9375L21.7187 20.7031L20 21.6406Z" fill="#FFDA44"/>
<path d="M12.5 18.9062C12.5 20.8954 13.2901 22.803 14.6967 24.2096C16.1032 25.6161 18.0108 26.4062 20 26.4062C21.9891 26.4062 23.8967 25.6161 25.3033 24.2096C26.7098 22.803 27.5 20.8954 27.5 18.9062H26.6406C26.6406 20.6675 25.941 22.3565 24.6956 23.6019C23.4502 24.8472 21.7612 25.5469 20 25.5469C18.2388 25.5469 16.5497 24.8472 15.3043 23.6019C14.059 22.3565 13.3593 20.6675 13.3593 18.9062H12.5ZM15.5468 20.2344L15.2343 20.3906C15.0781 20.5469 15.0781 20.8594 15.3125 21.0156C16.4843 22.1094 17.9687 22.7344 19.5312 22.8906V24.2188H20.4687V22.8906C22.0312 22.7344 23.5156 22.1094 24.6875 21.0156C24.9218 20.8594 24.9218 20.5469 24.7656 20.3906C24.6093 20.2344 24.2968 20.2344 24.1406 20.3906C23.0168 21.4404 21.5377 22.0264 20 22.0312C18.5156 22.0312 17.0312 21.4062 15.8593 20.3906L15.5468 20.2344Z" fill="#496E2D"/>
<path d="M20 24.6875C18.9062 24.6875 17.8125 24.2969 16.875 23.6719L17.3437 22.9688C18.9062 23.9844 21.0937 23.9844 22.6562 22.9688L23.2031 23.6719C22.2656 24.2969 21.1718 24.6875 20 24.6875Z" fill="#338AF3"/>
<path d="M20 13.5938C21.7187 14.4531 20.9375 16.1719 20.8593 16.25L20.7031 15.9375C20.3125 15.0781 19.2968 14.5312 18.2812 14.5312V15.3906C18.75 15.3906 19.1406 15.7812 19.1406 16.25C18.5937 16.7969 18.4375 17.5781 18.8281 18.2812L19.1406 18.9062L18.125 20.7031L20.3906 20.1562L21.7968 21.5625V20.7031L22.6562 21.5625L24.4531 20.7031L21.7187 19.0625L21.3281 17.4219L23.5156 18.6719C23.8281 19.5312 24.4531 20.3125 25.3125 20.7031C26.0156 14.2188 22.0312 13.5938 20.5468 13.5938H20Z" fill="#751A46"/>
<path d="M17.3437 21.1719C16.1718 21.1719 14.7656 20.2344 14.375 18.0469L15.2343 17.8906C15.5468 19.6875 16.6406 20.3125 17.3437 20.3125C17.5781 20.3125 17.7343 20.2344 17.8125 20.0781C17.8125 19.9219 17.8125 19.8438 17.3437 19.6875C17.1093 19.6094 16.7968 19.5312 16.5625 19.2969C15.7812 18.3594 16.875 17.4219 17.4218 16.9531C17.5 16.875 17.5781 16.7969 17.5 16.7188C17.5 16.7188 17.3437 16.5625 17.1093 16.5625C16.5625 16.5625 16.1718 16.25 16.0156 15.7031C15.8593 15.2344 16.1718 14.6875 16.6406 14.375L17.0312 15.2344C16.875 15.2344 16.875 15.3906 16.875 15.5469C16.875 15.5469 16.9531 15.7031 17.1093 15.7031C17.6562 15.7031 18.2031 16.0156 18.3593 16.4062C18.4375 16.6406 18.5156 17.1094 17.9687 17.5781C17.4218 18.125 17.1093 18.5156 17.2656 18.75L17.6562 18.8281C18.0468 18.9844 18.75 19.2188 18.6718 20.1562C18.5937 20.7812 18.0468 21.1719 17.3437 21.1719Z" fill="#6DA544"/>
<path d="M18.2812 14.5312L17.3437 15.3906V16.25L18.75 15.5469C18.9843 15.4688 18.9843 15.1562 18.8281 15L18.2812 14.5312Z" fill="#FFDA44"/>
<path d="M13.4375 22.1094C13.7826 22.1094 14.0625 21.8296 14.0625 21.4844C14.0625 21.1392 13.7826 20.8594 13.4375 20.8594C13.0923 20.8594 12.8125 21.1392 12.8125 21.4844C12.8125 21.8296 13.0923 22.1094 13.4375 22.1094Z" fill="#FFDA44"/>
<path d="M14.7656 24.2188C15.1108 24.2188 15.3906 23.9389 15.3906 23.5938C15.3906 23.2486 15.1108 22.9688 14.7656 22.9688C14.4204 22.9688 14.1406 23.2486 14.1406 23.5938C14.1406 23.9389 14.4204 24.2188 14.7656 24.2188Z" fill="#FFDA44"/>
<path d="M16.875 25.8594C17.2201 25.8594 17.5 25.5796 17.5 25.2344C17.5 24.8892 17.2201 24.6094 16.875 24.6094C16.5298 24.6094 16.25 24.8892 16.25 25.2344C16.25 25.5796 16.5298 25.8594 16.875 25.8594Z" fill="#FFDA44"/>
<path d="M23.2031 25.8594C23.5483 25.8594 23.8281 25.5796 23.8281 25.2344C23.8281 24.8892 23.5483 24.6094 23.2031 24.6094C22.8579 24.6094 22.5781 24.8892 22.5781 25.2344C22.5781 25.5796 22.8579 25.8594 23.2031 25.8594Z" fill="#FFDA44"/>
<path d="M25.3125 24.2188C25.6576 24.2188 25.9375 23.9389 25.9375 23.5938C25.9375 23.2486 25.6576 22.9688 25.3125 22.9688C24.9673 22.9688 24.6875 23.2486 24.6875 23.5938C24.6875 23.9389 24.9673 24.2188 25.3125 24.2188Z" fill="#FFDA44"/>
<path d="M26.6406 22.1094C26.9858 22.1094 27.2656 21.8296 27.2656 21.4844C27.2656 21.1392 26.9858 20.8594 26.6406 20.8594C26.2954 20.8594 26.0156 21.1392 26.0156 21.4844C26.0156 21.8296 26.2954 22.1094 26.6406 22.1094Z" fill="#FFDA44"/>
<path d="M20.4687 23.3594H19.5312C19.0566 23.3594 18.6718 23.7441 18.6718 24.2188C18.6718 24.6934 19.0566 25.0781 19.5312 25.0781H20.4687C20.9433 25.0781 21.3281 24.6934 21.3281 24.2188C21.3281 23.7441 20.9433 23.3594 20.4687 23.3594Z" fill="#FF9811"/>
</g>
</svg>
