<svg width="50" height="50" viewBox="0 0 50 50" fill="none" xmlns="http://www.w3.org/2000/svg">
<path d="M23.56 49.688C23.0907 46.9147 21.8533 43.928 19.848 40.728C17.8427 37.4853 14.984 34.4773 11.272 31.704C7.60267 28.9307 3.93333 27.16 0.264 26.392V23.704C3.89067 22.8507 7.368 21.272 10.696 18.968C14.0667 16.6213 16.8827 13.8053 19.144 10.52C21.448 7.14933 22.92 3.82133 23.56 0.535999H26.248C26.632 2.66933 27.4 4.86666 28.552 7.128C29.704 9.34666 31.176 11.48 32.968 13.528C34.8027 15.5333 36.8507 17.3467 39.112 18.968C42.4827 21.3573 45.9173 22.936 49.416 23.704V26.392C47.0693 26.8613 44.6373 27.8213 42.12 29.272C39.6453 30.7227 37.3413 32.4507 35.208 34.456C33.0747 36.4187 31.3253 38.488 29.96 40.664C27.9547 43.864 26.7173 46.872 26.248 49.688H23.56Z" fill="#DFBCF2"/>
</svg>
