<svg width="305" height="77" viewBox="0 0 305 77" fill="none" xmlns="http://www.w3.org/2000/svg">
<path d="M274.56 63.688C274.091 60.9147 272.853 57.928 270.848 54.728C268.843 51.4853 265.984 48.4773 262.272 45.704C258.603 42.9307 254.933 41.16 251.264 40.392V37.704C254.891 36.8507 258.368 35.272 261.696 32.968C265.067 30.6213 267.883 27.8053 270.144 24.52C272.448 21.1493 273.92 17.8213 274.56 14.536H277.248C277.632 16.6693 278.4 18.8667 279.552 21.128C280.704 23.3467 282.176 25.48 283.968 27.528C285.803 29.5333 287.851 31.3467 290.112 32.968C293.483 35.3573 296.917 36.936 300.416 37.704V40.392C298.069 40.8613 295.637 41.8213 293.12 43.272C290.645 44.7227 288.341 46.4507 286.208 48.456C284.075 50.4187 282.325 52.488 280.96 54.664C278.955 57.864 277.717 60.872 277.248 63.688H274.56Z" fill="#9E14FA"/>
<path d="M150.56 63.688C150.091 60.9147 148.853 57.928 146.848 54.728C144.843 51.4853 141.984 48.4773 138.272 45.704C134.603 42.9307 130.933 41.16 127.264 40.392V37.704C130.891 36.8507 134.368 35.272 137.696 32.968C141.067 30.6213 143.883 27.8053 146.144 24.52C148.448 21.1493 149.92 17.8213 150.56 14.536H153.248C153.632 16.6693 154.4 18.8667 155.552 21.128C156.704 23.3467 158.176 25.48 159.968 27.528C161.803 29.5333 163.851 31.3467 166.112 32.968C169.483 35.3573 172.917 36.936 176.416 37.704V40.392C174.069 40.8613 171.637 41.8213 169.12 43.272C166.645 44.7227 164.341 46.4507 162.208 48.456C160.075 50.4187 158.325 52.488 156.96 54.664C154.955 57.864 153.717 60.872 153.248 63.688H150.56Z" fill="#9E14FA"/>
<path d="M26.56 63.688C26.0907 60.9147 24.8533 57.928 22.848 54.728C20.8427 51.4853 17.984 48.4773 14.272 45.704C10.6027 42.9307 6.93333 41.16 3.264 40.392V37.704C6.89067 36.8507 10.368 35.272 13.696 32.968C17.0667 30.6213 19.8827 27.8053 22.144 24.52C24.448 21.1493 25.92 17.8213 26.56 14.536H29.248C29.632 16.6693 30.4 18.8667 31.552 21.128C32.704 23.3467 34.176 25.48 35.968 27.528C37.8027 29.5333 39.8507 31.3467 42.112 32.968C45.4827 35.3573 48.9173 36.936 52.416 37.704V40.392C50.0693 40.8613 47.6373 41.8213 45.12 43.272C42.6453 44.7227 40.3413 46.4507 38.208 48.456C36.0747 50.4187 34.3253 52.488 32.96 54.664C30.9547 57.864 29.7173 60.872 29.248 63.688H26.56Z" fill="#9E14FA"/>
</svg>
