<svg width="40" height="40" viewBox="0 0 40 40" fill="none" xmlns="http://www.w3.org/2000/svg">
<path d="M39.9106 1.71427C40.0963 1.25 39.9874 0.71973 39.6339 0.366152C39.2803 0.0125747 38.75 -0.0962677 38.2857 0.0894404L1.918 14.6365L1.91435 14.638L0.785778 15.0894C0.350343 15.2636 0.0490361 15.6668 0.00543195 16.1338C-0.0381722 16.6007 0.183263 17.0528 0.578922 17.3046L1.60297 17.9563L1.60771 17.9593L14.0946 25.9054L22.0407 38.3923L22.0445 38.3982L22.6954 39.4211C22.9472 39.8167 23.3993 40.0382 23.8662 39.9946C24.3332 39.951 24.7364 39.6497 24.9106 39.2142L39.9106 1.71427ZM35.3277 6.44007L16.5929 25.1748L16.0546 24.3289C15.9564 24.1746 15.8254 24.0436 15.6711 23.9454L14.8251 23.4071L33.5598 4.67238L36.5061 3.49385L35.3277 6.44007Z" fill="white"/>
</svg>
