<svg width="66" height="66" viewBox="0 0 66 66" fill="none" xmlns="http://www.w3.org/2000/svg">
<path d="M41.9872 55.8888C40.3898 53.5736 38.0062 51.3897 34.8364 49.337C31.6485 47.2456 27.7864 45.7276 23.2502 44.7829C18.7526 43.8201 14.6787 43.7661 11.0286 44.6207L9.89259 42.1846C12.8188 39.8785 15.3032 36.9782 17.3457 33.4836C19.4088 29.9322 20.7709 26.19 21.4319 22.2568C22.0955 18.2282 22.0231 14.5899 21.2147 11.3419L23.6509 10.2059C24.9005 11.9771 26.5252 13.644 28.5249 15.2066C30.5066 16.7305 32.7423 18.0419 35.2319 19.1407C37.7422 20.1828 40.3646 20.9607 43.0993 21.4744C47.164 22.2154 50.944 22.1946 54.4394 21.412L55.5754 23.8482C53.647 25.2653 51.8485 27.1632 50.1801 29.5418C48.5504 31.9024 47.1926 34.4422 46.1066 37.1612C45.0026 39.8416 44.2917 42.4563 43.9739 45.0055C43.5088 48.7532 43.6587 52.0023 44.4234 54.7528L41.9872 55.8888Z" fill="white"/>
</svg>
