<svg width="41" height="40" viewBox="0 0 41 40" fill="none" xmlns="http://www.w3.org/2000/svg">
<mask id="mask0_218_379" style="mask-type:luminance" maskUnits="userSpaceOnUse" x="0" y="0" width="41" height="40">
<path d="M20.4027 40C31.4484 40 40.4027 31.0457 40.4027 20C40.4027 8.9543 31.4484 0 20.4027 0C9.35698 0 0.402679 8.9543 0.402679 20C0.402679 31.0457 9.35698 40 20.4027 40Z" fill="white"/>
</mask>
<g mask="url(#mask0_218_379)">
<path d="M0.402679 0H40.4027V40H0.402679V0Z" fill="#6DA544"/>
<path d="M20.4027 7.82812L36.9261 20L20.4027 32.1719L3.87924 20L20.4027 7.82812Z" fill="#FFDA44"/>
<path d="M14.0121 17.2656C13.6233 18.1597 13.4315 19.1269 13.4496 20.1016L26.1058 23.9922C26.6634 23.1957 27.0467 22.2906 27.2308 21.3359C24.0589 16.2344 17.8792 15.0625 14.0199 17.2734L14.0121 17.2656Z" fill="#EEEEEE"/>
<path d="M20.3792 13.0469C19.2366 13.0498 18.1123 13.3342 17.1058 13.875C15.7205 14.6224 14.6298 15.8178 14.0121 17.2656C16.3791 16.763 18.8354 16.8738 21.1476 17.5876C23.4598 18.3013 25.5511 19.5943 27.223 21.3437C27.5336 19.7621 27.285 18.1217 26.5199 16.7031C25.9231 15.595 25.0367 14.6696 23.9553 14.0257C22.8738 13.3818 21.6379 13.0435 20.3792 13.0469ZM16.9652 19.5703C15.773 19.5663 14.5873 19.7455 13.4496 20.1016C13.4627 21.217 13.7441 22.313 14.2699 23.2969C14.7025 24.1015 15.2895 24.8129 15.9973 25.3906C16.7051 25.9682 17.5197 26.4007 18.3947 26.6634C19.2697 26.926 20.1879 27.0137 21.0968 26.9213C22.0057 26.8289 22.8875 26.5583 23.6917 26.125C24.6466 25.6108 25.468 24.8804 26.0902 23.9922C24.9936 22.6231 23.6055 21.5158 22.027 20.7508C20.4485 19.9859 18.7192 19.5826 16.9652 19.5703Z" fill="#0052B4"/>
</g>
</svg>
